<svg width="1024" height="1024" viewBox="0 0 1024 1024" fill="none" xmlns="http://www.w3.org/2000/svg">
<path d="M358.934 276.632C313.579 276.632 276.567 313.645 276.567 359C276.567 404.355 313.579 441.368 358.934 441.368C404.288 441.368 441.3 404.355 441.3 359C441.3 313.645 404.288 276.632 358.934 276.632ZM605.972 359C605.972 324.891 606.281 291.091 604.366 257.044C602.45 217.497 593.429 182.399 564.511 153.481C535.531 124.5 500.496 115.541 460.95 113.625C426.841 111.709 393.042 112.018 358.995 112.018C324.887 112.018 291.088 111.709 257.041 113.625C217.495 115.541 182.398 124.562 153.48 153.481C124.5 182.461 115.54 217.497 113.625 257.044C111.709 291.153 112.018 324.953 112.018 359C112.018 393.047 111.709 426.909 113.625 460.956C115.54 500.503 124.562 535.601 153.48 564.519C182.46 593.5 217.495 602.459 257.041 604.375C291.149 606.291 324.949 605.982 358.995 605.982C393.104 605.982 426.903 606.291 460.95 604.375C500.496 602.459 535.593 593.438 564.511 564.519C593.491 535.539 602.45 500.503 604.366 460.956C606.343 426.909 605.972 393.109 605.972 359V359ZM358.934 485.735C288.801 485.735 232.201 429.134 232.201 359C232.201 288.866 288.801 232.265 358.934 232.265C429.066 232.265 485.666 288.866 485.666 359C485.666 429.134 429.066 485.735 358.934 485.735ZM490.857 256.673C474.482 256.673 461.259 243.449 461.259 227.075C461.259 210.7 474.482 197.476 490.857 197.476C507.231 197.476 520.454 210.7 520.454 227.075C520.459 230.963 519.697 234.814 518.211 238.407C516.725 242 514.546 245.265 511.796 248.015C509.047 250.764 505.782 252.944 502.189 254.43C498.596 255.915 494.745 256.678 490.857 256.673V256.673Z" fill="white"/>
</svg>
