<svg width="186" height="186" viewBox="0 0 186 186" fill="none" xmlns="http://www.w3.org/2000/svg">
<path d="M156.24 53.009C133.92 18.599 88.3501 8.36896 53.0101 29.759C18.6001 51.149 7.44015 97.649 29.7601 132.059L31.6201 134.849L24.1801 162.749L52.0801 155.309L54.8702 157.169C66.9601 163.679 79.9801 167.399 93.0002 167.399C106.95 167.399 120.9 163.679 132.99 156.239C167.4 133.919 177.63 88.349 156.24 53.009V53.009ZM136.71 124.619C132.99 130.199 128.34 133.919 121.83 134.849C118.11 134.849 113.46 136.709 94.8601 129.269C79.0501 121.829 66.0301 109.739 56.7301 95.789C51.1501 89.279 48.3601 80.909 47.4301 72.539C47.4301 65.099 50.2202 58.589 54.8702 53.939C56.7302 52.079 58.5901 51.149 60.4501 51.149H65.1001C66.9601 51.149 68.8201 51.149 69.7501 54.869C71.6101 59.519 76.2601 70.679 76.2601 71.609C77.1901 72.539 77.1901 74.399 76.2601 75.329C77.1901 77.189 76.2602 79.049 75.3302 79.979C74.4002 80.909 73.4702 82.769 72.5402 83.699C70.6802 84.629 69.7501 86.489 70.6801 88.349C74.4001 93.929 79.0501 99.509 83.7001 104.159C89.2802 108.809 94.8601 112.529 101.37 115.319C103.23 116.249 105.09 116.249 106.02 114.389C106.95 112.529 111.6 107.879 113.46 106.019C115.32 104.159 116.25 104.159 118.11 105.089L132.99 112.529C134.85 113.459 136.71 114.389 137.64 115.319C138.57 118.109 138.57 121.829 136.71 124.619V124.619Z" fill="white"/>
</svg>
