<svg width="51" height="51" viewBox="0 0 51 51" fill="none" xmlns="http://www.w3.org/2000/svg">
<path d="M28.4969 25.4999L37.6343 16.3837C38.0345 15.9835 38.2593 15.4408 38.2593 14.8749C38.2593 14.309 38.0345 13.7663 37.6343 13.3662C37.2342 12.966 36.6915 12.7412 36.1256 12.7412C35.5597 12.7412 35.017 12.966 34.6169 13.3662L25.5006 22.5037L16.3844 13.3662C15.9842 12.966 15.4415 12.7412 14.8756 12.7412C14.3097 12.7412 13.767 12.966 13.3669 13.3662C12.9667 13.7663 12.7419 14.309 12.7419 14.8749C12.7419 15.4408 12.9667 15.9835 13.3669 16.3837L22.5044 25.4999L13.3669 34.6162C13.1677 34.8137 13.0096 35.0487 12.9017 35.3077C12.7938 35.5666 12.7383 35.8444 12.7383 36.1249C12.7383 36.4054 12.7938 36.6832 12.9017 36.9421C13.0096 37.2011 13.1677 37.4361 13.3669 37.6337C13.5644 37.8328 13.7994 37.9909 14.0584 38.0988C14.3173 38.2067 14.5951 38.2622 14.8756 38.2622C15.1561 38.2622 15.4339 38.2067 15.6928 38.0988C15.9518 37.9909 16.1868 37.8328 16.3844 37.6337L25.5006 28.4962L34.6169 37.6337C34.8144 37.8328 35.0494 37.9909 35.3084 38.0988C35.5673 38.2067 35.8451 38.2622 36.1256 38.2622C36.4061 38.2622 36.6839 38.2067 36.9428 38.0988C37.2018 37.9909 37.4368 37.8328 37.6343 37.6337C37.8335 37.4361 37.9916 37.2011 38.0995 36.9421C38.2074 36.6832 38.2629 36.4054 38.2629 36.1249C38.2629 35.8444 38.2074 35.5666 38.0995 35.3077C37.9916 35.0487 37.8335 34.8137 37.6343 34.6162L28.4969 25.4999Z" fill="black"/>
</svg>
