<svg width="119" height="119" viewBox="0 0 119 119" fill="none" xmlns="http://www.w3.org/2000/svg">
<path d="M29.75 22.3125C25.8049 22.3125 22.0214 23.8797 19.2318 26.6693C16.4422 29.4589 14.875 33.2424 14.875 37.1875V38.6824L59.5 62.713L104.125 38.6899V37.1875C104.125 33.2424 102.558 29.4589 99.7682 26.6693C96.9786 23.8797 93.1951 22.3125 89.25 22.3125H29.75Z" fill="white"/>
<path d="M104.125 47.1309L61.2627 70.2094C60.7209 70.5011 60.1153 70.6537 59.5 70.6537C58.8847 70.6537 58.2791 70.5011 57.7373 70.2094L14.875 47.1309V81.8119C14.875 85.757 16.4422 89.5405 19.2318 92.3301C22.0214 95.1197 25.8049 96.6869 29.75 96.6869H89.25C93.1951 96.6869 96.9786 95.1197 99.7682 92.3301C102.558 89.5405 104.125 85.757 104.125 81.8119V47.1309Z" fill="white"/>
</svg>
