<svg width="112" height="127" viewBox="0 0 112 127" fill="none" xmlns="http://www.w3.org/2000/svg">
<path d="M7.93742 0H75.3782L111.125 35.6077V119.063C111.125 123.448 107.569 127 103.187 127H7.93742C3.5558 127 0 123.448 0 119.063V7.93742C0 3.55211 3.55622 0 7.93742 0Z" fill="white"/>
<path d="M111.01 35.7185H83.3437C78.9621 35.7185 75.4062 32.1627 75.4062 27.781V0.0791016L111.01 35.7185Z" fill="#C7C7C7"/>
<path d="M81.3508 60.1784C82.6805 60.1784 83.3314 59.0196 83.3314 57.8964C83.3314 56.7335 82.6526 55.6104 81.3508 55.6104H73.7784C72.2981 55.6104 71.4727 56.8365 71.4727 58.19V76.7994C71.4727 78.4584 72.4171 79.3791 73.6951 79.3791C74.9652 79.3791 75.9138 78.4584 75.9138 76.7994V71.6918H80.4938C81.9146 71.6918 82.625 70.5288 82.625 69.3741C82.625 68.2431 81.9146 67.1196 80.4938 67.1196H75.9138V60.1784C75.9138 60.1784 81.3508 60.1784 81.3508 60.1784ZM55.7563 55.6104H50.2158C48.7116 55.6104 47.644 56.6423 47.644 58.174V76.8154C47.644 78.7163 49.1798 79.3117 50.2791 79.3117H56.0935C62.9751 79.3117 67.5193 74.7835 67.5193 67.7943C67.5156 60.4047 63.2375 55.6104 55.7563 55.6104ZM56.0224 74.7162H52.6448V60.2063H55.689C60.2969 60.2063 62.3008 63.2981 62.3008 67.5643C62.3008 71.5571 60.3322 74.7162 56.0224 74.7162ZM35.7261 55.6104H30.2374C28.6855 55.6104 27.8203 56.6341 27.8203 58.19V76.7994C27.8203 78.4584 28.8124 79.3791 30.1458 79.3791C31.4792 79.3791 32.4713 78.4584 32.4713 76.7994V71.3661H35.9121C40.1587 71.3661 43.6631 68.3577 43.6631 63.5199C43.6635 58.7855 40.2823 55.6104 35.7261 55.6104ZM35.635 67.0009H32.4717V59.9801H35.635C37.5876 59.9801 38.8298 61.504 38.8298 63.4923C38.8257 65.477 37.5876 67.0009 35.635 67.0009Z" fill="black"/>
</svg>
