<svg width="111" height="119" viewBox="0 0 111 119" fill="none" xmlns="http://www.w3.org/2000/svg">
<path d="M48.5579 82.5259C49.2137 81.2087 49.5625 79.7332 49.5625 78.2635V47.6568C49.5625 46.2175 49.0268 44.8431 48.0508 43.7852L45.2468 46.3662C45.5708 46.7189 45.75 47.1783 45.75 47.6568V78.2635C45.75 79.1461 45.5422 80.0306 45.1476 80.8217L41.9375 87.2381V91.5005H15.25V87.0532L10.3662 80.5396C9.76953 79.7447 9.38828 78.8049 9.26628 77.8193L7.91475 67.0128C7.68028 65.1313 7.00166 63.2994 5.9475 61.7192L3.98406 58.774C3.87159 58.6063 3.8125 58.4099 3.8125 58.2078C3.8125 57.6455 4.27 57.188 4.83234 57.188C8.85644 57.188 12.3525 60.0531 13.1436 64.0009L15.5226 75.8998L16.693 76.1933C20.334 77.1045 22.875 80.3585 22.875 84.11V87.688H26.6875V84.11C26.6875 79.1213 23.6146 74.7465 19.0625 72.9737V47.6568C19.0625 47.1783 19.2417 46.7189 19.5657 46.3681L16.7617 43.7852C15.7857 44.8412 15.25 46.2175 15.25 47.6568V59.1762C13.0521 55.6649 9.15762 53.3755 4.83234 53.3755C2.16931 53.3755 0 55.5429 0 58.2078C0 59.1648 0.280219 60.0912 0.812063 60.888L2.77359 63.8294C3.49987 64.9198 3.96881 66.1817 4.13084 67.4818L5.48237 78.2883C5.68634 79.9315 6.31922 81.5003 7.31619 82.8252L11.4375 88.3228V91.5005H7.625V118.188H49.5625V91.5005H45.75V88.1379L48.5579 82.5259ZM45.75 95.313V99.1255H11.4375V95.313H45.75ZM11.4375 114.375V102.938H45.75V114.375H11.4375Z" fill="white"/>
<path d="M22.875 49.8809H26.6875V70.5313H22.875V49.8809Z" fill="white"/>
<path d="M30.5 51.4688H34.3125V70.5312H30.5V51.4688Z" fill="white"/>
<path d="M38.125 49.8828H41.9375V70.5313H38.125V49.8828Z" fill="white"/>
<path d="M109.75 57.3L107.789 54.3586C107.063 53.2683 106.594 52.0063 106.432 50.7063L105.08 39.8997C104.876 38.2565 104.243 36.6877 103.246 35.3628L99.125 29.8652V26.6875H102.938V0H61V26.6875H64.8125V30.0501L62.0046 35.664C61.3488 36.9793 61 38.4548 61 39.9245V70.5312C61 70.9335 61.0515 71.33 61.1334 71.7169C61.1601 71.8428 61.204 71.9648 61.2402 72.0887C61.3145 72.3517 61.4022 72.6091 61.5147 72.8588C61.5414 72.9198 61.5509 72.9846 61.5814 73.0456L61.6024 73.0342C61.8426 73.526 62.1323 73.993 62.5117 74.4048L65.3157 71.8237C65.1747 71.6712 65.0756 71.4901 64.9917 71.3033C64.8811 71.0574 64.8125 70.8019 64.8125 70.5312V39.9245C64.8125 39.0419 65.0203 38.1574 65.4149 37.3663L68.625 30.9499V26.6875H95.3125V31.1348L100.196 37.6484C100.793 38.4433 101.174 39.3831 101.296 40.3687L102.648 51.1752C102.882 53.0567 103.561 54.8886 104.615 56.4688L106.577 59.4102C106.689 59.5779 106.748 59.7743 106.748 59.9763C106.75 60.5425 106.293 61 105.73 61C101.706 61 98.21 58.1349 97.4189 54.1871L95.0399 42.2883L93.8695 41.9947C90.2285 41.0835 87.6875 37.8295 87.6875 34.078V30.5H83.875V34.078C83.875 39.0667 86.9479 43.4415 91.5 45.2143V70.5312C91.5 70.7981 91.4295 71.0536 91.3227 71.2995C91.2388 71.4863 91.1378 71.6674 90.9968 71.8218L93.8008 74.4048C94.1802 73.993 94.4718 73.5222 94.7139 73.0284L94.7349 73.0399C94.7635 72.9808 94.773 72.916 94.7997 72.8569C94.9122 72.6072 94.998 72.3498 95.0723 72.0848C95.1066 71.9609 95.1524 71.8408 95.1772 71.7169C95.261 71.3281 95.3125 70.9335 95.3125 70.5312V59.0118C97.5104 62.5231 101.405 64.8125 105.73 64.8125C108.393 64.8125 110.562 62.6451 110.562 59.9802C110.562 59.0232 110.282 58.0968 109.75 57.3V57.3ZM99.125 3.8125V22.875H64.8125V15.25H80.0625V11.4375H64.8125V3.8125H99.125Z" fill="white"/>
<path d="M83.875 68.0207V68.3067H87.6875V68.0207V47.6562H83.875V68.0207Z" fill="white"/>
<path d="M76.25 47.6562H80.0625V66.7188H76.25V47.6562Z" fill="white"/>
<path d="M68.625 68.0207V68.3047H72.4375V68.0207V47.6562H68.625V68.0207Z" fill="white"/>
<path d="M89.5938 19.0625C92.7467 19.0625 95.3125 16.4967 95.3125 13.3438C95.3125 10.1908 92.7467 7.625 89.5938 7.625C86.4408 7.625 83.875 10.1908 83.875 13.3438C83.875 16.4967 86.4408 19.0625 89.5938 19.0625ZM89.5938 11.4375C90.646 11.4375 91.5 12.2934 91.5 13.3438C91.5 14.3941 90.646 15.25 89.5938 15.25C88.5415 15.25 87.6875 14.3941 87.6875 13.3438C87.6875 12.2934 88.5415 11.4375 89.5938 11.4375Z" fill="white"/>
<path d="M32.4062 53.375C20.8448 53.375 11.4375 43.9677 11.4375 32.4062C11.4375 20.8448 20.8448 11.4375 32.4062 11.4375C43.9677 11.4375 53.375 20.8448 53.375 32.4062C53.375 43.9677 43.9677 53.375 32.4062 53.375Z" fill="#56C126"/>
<path d="M32.4062 30.5C31.354 30.5 30.5 29.6441 30.5 28.5938V26.6875H32.4062C33.4585 26.6875 34.3125 27.5434 34.3125 28.5938H38.125C38.125 26.1118 36.5257 24.0149 34.3125 23.2258V19.0625H30.5V22.875H26.6875V28.5938C26.6875 31.7467 29.2533 34.3125 32.4062 34.3125C33.4585 34.3125 34.3125 35.1684 34.3125 36.2188V38.125H32.4062C31.354 38.125 30.5 37.2691 30.5 36.2188H26.6875C26.6875 38.7007 28.2868 40.7976 30.5 41.5867V45.75H34.3125V41.9375H38.125V36.2188C38.125 33.0658 35.5592 30.5 32.4062 30.5Z" fill="#FAFAFA"/>
<path d="M78.1562 114.375C64.4922 114.375 53.375 103.258 53.375 89.5938C53.375 75.9297 64.4922 64.8125 78.1562 64.8125C91.8203 64.8125 102.938 75.9297 102.938 89.5938C102.938 103.258 91.8203 114.375 78.1562 114.375Z" fill="#44413B"/>
<path d="M65.3555 99.6816L88.2276 76.8095L90.923 79.5049L68.0509 102.377L65.3555 99.6816Z" fill="#FFB900"/>
<path d="M85.7812 102.938C82.6283 102.938 80.0625 100.372 80.0625 97.2188C80.0625 94.0658 82.6283 91.5 85.7812 91.5C88.9342 91.5 91.5 94.0658 91.5 97.2188C91.5 100.372 88.9342 102.938 85.7812 102.938ZM85.7812 95.3125C84.729 95.3125 83.875 96.1684 83.875 97.2188C83.875 98.2691 84.729 99.125 85.7812 99.125C86.8335 99.125 87.6875 98.2691 87.6875 97.2188C87.6875 96.1684 86.8335 95.3125 85.7812 95.3125Z" fill="#FFB900"/>
<path d="M70.5312 87.6875C67.3783 87.6875 64.8125 85.1217 64.8125 81.9688C64.8125 78.8158 67.3783 76.25 70.5312 76.25C73.6842 76.25 76.25 78.8158 76.25 81.9688C76.25 85.1217 73.6842 87.6875 70.5312 87.6875ZM70.5312 80.0625C69.479 80.0625 68.625 80.9184 68.625 81.9688C68.625 83.0191 69.479 83.875 70.5312 83.875C71.5835 83.875 72.4375 83.0191 72.4375 81.9688C72.4375 80.9184 71.5835 80.0625 70.5312 80.0625Z" fill="#FFB900"/>
</svg>
