<svg width="494" height="494" viewBox="0 0 494 494" fill="none" xmlns="http://www.w3.org/2000/svg">
<path d="M246.934 164.632C201.579 164.632 164.567 201.645 164.567 247C164.567 292.355 201.579 329.368 246.934 329.368C292.288 329.368 329.3 292.355 329.3 247C329.3 201.645 292.288 164.632 246.934 164.632ZM493.972 247C493.972 212.891 494.281 179.091 492.366 145.044C490.45 105.497 481.429 70.3992 452.511 41.4806C423.531 12.5003 388.496 3.54051 348.95 1.62496C314.841 -0.29058 281.042 0.0183796 246.995 0.0183796C212.887 0.0183796 179.088 -0.29058 145.041 1.62496C105.495 3.54051 70.3979 12.5621 41.4799 41.4806C12.5001 70.461 3.54044 105.497 1.62493 145.044C-0.290575 179.153 0.0183793 212.953 0.0183793 247C0.0183793 281.047 -0.290575 314.909 1.62493 348.956C3.54044 388.503 12.5619 423.601 41.4799 452.519C70.4597 481.5 105.495 490.459 145.041 492.375C179.149 494.291 212.949 493.982 246.995 493.982C281.104 493.982 314.903 494.291 348.95 492.375C388.496 490.459 423.593 481.438 452.511 452.519C481.491 423.539 490.45 388.503 492.366 348.956C494.343 314.909 493.972 281.109 493.972 247V247ZM246.934 373.735C176.801 373.735 120.201 317.134 120.201 247C120.201 176.866 176.801 120.265 246.934 120.265C317.066 120.265 373.666 176.866 373.666 247C373.666 317.134 317.066 373.735 246.934 373.735ZM378.857 144.673C362.482 144.673 349.259 131.449 349.259 115.075C349.259 98.6998 362.482 85.4764 378.857 85.4764C395.231 85.4764 408.454 98.6998 408.454 115.075C408.459 118.963 407.697 122.814 406.211 126.407C404.725 130 402.546 133.265 399.796 136.015C397.047 138.764 393.782 140.944 390.189 142.43C386.596 143.915 382.745 144.678 378.857 144.673V144.673Z" fill="white"/>
</svg>
