<svg width="51" height="51" viewBox="0 0 51 51" fill="none" xmlns="http://www.w3.org/2000/svg">
<path d="M21.25 36.125L10.625 25.5L13.6213 22.4825L21.25 30.1112L37.3787 13.9825L40.375 17L21.25 36.125ZM25.5 4.25C22.7094 4.25 19.9461 4.79965 17.368 5.86756C14.7898 6.93547 12.4472 8.50074 10.474 10.474C6.48883 14.4591 4.25 19.8641 4.25 25.5C4.25 31.1359 6.48883 36.5409 10.474 40.526C12.4472 42.4993 14.7898 44.0645 17.368 45.1324C19.9461 46.2004 22.7094 46.75 25.5 46.75C31.1359 46.75 36.5409 44.5112 40.526 40.526C44.5112 36.5409 46.75 31.1359 46.75 25.5C46.75 22.7094 46.2004 19.9461 45.1324 17.368C44.0645 14.7898 42.4993 12.4472 40.526 10.474C38.5528 8.50074 36.2102 6.93547 33.632 5.86756C31.0539 4.79965 28.2906 4.25 25.5 4.25Z" fill="url(#paint0_linear)"/>
<defs>
<linearGradient id="paint0_linear" x1="25.5" y1="4.25" x2="25.5" y2="46.75" gradientUnits="userSpaceOnUse">
<stop stop-color="#FFB900"/>
<stop offset="1" stop-color="#FA4A0C"/>
</linearGradient>
</defs>
</svg>
