<svg width="64" height="64" viewBox="0 0 64 64" fill="none" xmlns="http://www.w3.org/2000/svg">
<path d="M60.1854 28.6247L50.1564 17.6091C48.2339 15.6812 44.8953 15.6678 42.9381 17.6251C42.3061 18.2571 41.8742 19.0171 41.6502 19.8276C39.7036 18.3343 36.733 18.4971 34.9384 20.2916C34.3065 20.9236 33.8745 21.6836 33.6451 22.4915C31.7038 20.9982 28.7307 21.169 26.9388 22.9581C26.3174 23.5795 25.8908 24.3235 25.6588 25.1101L20.9336 20.3849C18.9471 18.401 15.7205 18.3956 13.7126 20.4009C11.726 22.3848 11.726 25.6167 13.7126 27.6032L31.8664 45.7571L21.1043 47.4476C18.1924 47.8639 15.9978 50.3918 15.9978 53.3329C15.9978 55.5382 17.7924 57.3327 19.9977 57.3327H45.1406C49.0551 57.3327 52.7377 55.8074 55.5162 53.0343L59.708 48.8398C62.4759 46.0746 63.9985 42.3947 63.9985 38.4829C63.9985 34.8297 62.6439 31.3285 60.1854 28.6247ZM57.8201 46.9572L53.6283 51.1516C51.359 53.4181 48.3431 54.6661 45.1406 54.6661H19.9977C19.2643 54.6661 18.6644 54.0687 18.6644 53.3328C18.6644 51.7115 19.8749 50.3169 21.4962 50.0823L34.8691 47.981C35.365 47.9036 35.773 47.5544 35.9304 47.077C36.085 46.6024 35.9598 46.0771 35.605 45.7225L15.5979 25.7154C14.6539 24.7688 14.6539 23.2301 15.6139 22.2675C16.0885 21.7956 16.7098 21.5582 17.3312 21.5582C17.9525 21.5582 18.5737 21.7956 19.0485 22.2702L26.8774 30.0992C26.896 30.1206 26.92 30.1418 26.9414 30.1632L32.3918 35.611C32.9118 36.131 33.7571 36.131 34.2771 35.611C34.7971 35.091 34.7971 34.2457 34.2771 33.7257L28.7813 28.2299C27.8827 27.2806 27.8987 25.774 28.8427 24.8274C29.76 23.9155 31.3546 23.9101 32.2719 24.8274L34.8932 27.4513C34.9092 27.4673 34.9226 27.4833 34.9386 27.4967L37.7224 30.278C38.2424 30.7979 39.0878 30.7979 39.6077 30.278C40.1277 29.758 40.1277 28.9126 39.6077 28.3927L36.7919 25.5794C35.8825 24.6301 35.8933 23.1129 36.8425 22.1609C37.7571 21.249 39.3544 21.2436 40.2717 22.1609L43.0556 24.9554C43.0582 24.9581 43.0582 24.9608 43.061 24.9608L43.0636 24.9634C43.0852 24.9743 43.0799 24.9716 43.0742 24.9688C43.0742 24.9688 43.0742 24.9714 43.0769 24.9714C43.0795 24.9741 43.0795 24.9741 43.0795 24.9741C43.0821 24.9767 43.0821 24.9767 43.0821 24.9767H43.0847C43.0874 24.9767 43.0874 24.9767 43.0874 24.9767C43.6153 25.4673 44.4367 25.454 44.9433 24.9421C45.4606 24.4221 45.4606 23.5795 44.9407 23.0595L44.7807 22.8995C43.8793 21.9502 43.8927 20.441 44.8393 19.4943C45.7566 18.5823 47.3938 18.6223 48.2258 19.4489L58.2094 30.4218C60.2227 32.6351 61.3292 35.4963 61.3292 38.4855C61.3294 41.6827 60.0814 44.6933 57.8201 46.9572Z" fill="black"/>
<path d="M43.0732 24.9703H43.076C43.0731 24.9684 43.0703 24.9668 43.0703 24.9668C43.0732 24.9703 43.0761 24.9703 43.0732 24.9703Z" fill="black"/>
<path d="M28.2565 19.0781C26.3125 14.7796 22.0273 12.001 17.3315 12.001C10.7158 12.001 5.33203 17.3848 5.33203 24.0005C5.33203 28.6937 8.11054 32.9815 12.4064 34.9254C12.585 35.0054 12.7717 35.0428 12.9557 35.0428C13.4651 35.0428 13.9477 34.7494 14.1717 34.2588C14.473 33.5868 14.177 32.7975 13.5051 32.4935C10.1612 30.9816 7.99867 27.6485 7.99867 24.0006C7.99867 18.8542 12.1851 14.6676 17.3317 14.6676C20.9795 14.6676 24.3128 16.8302 25.8247 20.174C26.1287 20.846 26.9153 21.1446 27.59 20.8406C28.2592 20.5394 28.5578 19.7474 28.2565 19.0781Z" fill="#FA4A0C"/>
<path d="M34.0652 19.5448C32.0521 11.9638 25.1696 6.66797 17.3327 6.66797C7.77568 6.66797 0 14.4436 0 24.0006C0 31.8377 5.29578 38.72 12.8795 40.7333C12.9941 40.7653 13.1088 40.7787 13.2208 40.7787C13.8128 40.7787 14.3514 40.3867 14.5088 39.7894C14.6981 39.0774 14.2768 38.3468 13.5622 38.1574C7.14908 36.4535 2.66664 30.6324 2.66664 24.0006C2.66664 15.913 9.24775 9.33461 17.3327 9.33461C23.9618 9.33461 29.7855 13.8144 31.4895 20.2302C31.6761 20.9395 32.3828 21.3661 33.1214 21.1768C33.8306 20.9874 34.252 20.2568 34.0652 19.5448Z" fill="#FA4A0C"/>
</svg>
