<svg width="64" height="64" viewBox="0 0 64 64" fill="none" xmlns="http://www.w3.org/2000/svg">
<path d="M50.875 0H13.125C5.88788 0 0 5.88788 0 13.125V50.875C0 58.1121 5.88788 64 13.125 64H50.875C58.1121 64 64 58.1121 64 50.875V13.125C64 5.88788 58.1121 0 50.875 0ZM19.7061 49.3144C19.128 50.3158 18.0754 50.8761 16.9945 50.8763C16.4646 50.8763 15.9281 50.7416 15.4373 50.4582C13.945 49.5967 13.4319 47.6817 14.2934 46.1895L14.908 45.125H22.1249L19.7061 49.3144ZM13.8125 42.625C12.0894 42.625 10.6875 41.2231 10.6875 39.5C10.6875 37.7769 12.0894 36.375 13.8125 36.375H19.9597L28.3915 21.7708L26.1064 17.8127C25.2449 16.3205 25.7579 14.4055 27.2501 13.5439C28.7424 12.6824 30.6575 13.1956 31.519 14.6877L32 15.5209L32.481 14.6879C33.3429 13.1955 35.2579 12.6825 36.7497 13.544C37.4726 13.9614 37.9897 14.6353 38.2057 15.4415C38.4219 16.2477 38.3109 17.09 37.8935 17.8129L27.1766 36.375H33.9365L37.545 42.625H13.8125ZM50.1875 42.625H47.6486L49.7065 46.1894C50.5681 47.6815 50.055 49.5965 48.5629 50.4581C48.0812 50.7361 47.5467 50.8783 47.0052 50.8783C46.7337 50.8783 46.4608 50.8426 46.1914 50.7704C45.385 50.5542 44.7111 50.0371 44.2938 49.3141L33.4432 30.5206L37.0516 24.2706L44.0402 36.375H50.1875C51.9106 36.375 53.3125 37.7769 53.3125 39.5C53.3125 41.2231 51.9106 42.625 50.1875 42.625Z" fill="#0E75BF"/>
</svg>
