<svg width="64" height="64" viewBox="0 0 64 64" fill="none" xmlns="http://www.w3.org/2000/svg">
<path d="M44.8 0H19.2C8.61333 0 0 8.61104 0 19.1949V34.1242C0 44.3508 8.04053 52.7347 18.1333 53.2903V62.1882C18.1333 63.1874 18.9483 64 19.9499 64C20.4288 64 20.8821 63.8102 21.2245 63.4679L23.2256 61.4673C28.48 56.2133 35.4677 53.3191 42.9003 53.3191H44.8C55.3867 53.3191 64 44.7081 64 34.1242V19.1949C64 8.61104 55.3867 0 44.8 0ZM18.1333 30.9251C15.7803 30.9251 13.8667 29.012 13.8667 26.6596C13.8667 24.3071 15.7803 22.394 18.1333 22.394C20.4864 22.394 22.4 24.3071 22.4 26.6596C22.4 29.012 20.4853 30.9251 18.1333 30.9251ZM32 30.9251C29.6469 30.9251 27.7333 29.012 27.7333 26.6596C27.7333 24.3071 29.6469 22.394 32 22.394C34.3531 22.394 36.2667 24.3071 36.2667 26.6596C36.2667 29.012 34.352 30.9251 32 30.9251ZM45.8667 30.9251C43.5136 30.9251 41.6 29.012 41.6 26.6596C41.6 24.3071 43.5136 22.394 45.8667 22.394C48.2197 22.394 50.1333 24.3071 50.1333 26.6596C50.1333 29.012 48.2187 30.9251 45.8667 30.9251Z" fill="#FFB900"/>
</svg>
