<svg width="134" height="134" viewBox="0 0 134 134" fill="none" xmlns="http://www.w3.org/2000/svg">
<path d="M76.0139 134H57.9859C55.202 134 52.6994 132.453 51.455 129.962C50.2105 127.472 50.4759 124.542 52.1475 122.316L55.1899 118.263V114.507C50.4486 113.337 45.9528 111.472 41.7625 108.94L39.1024 111.599L38.3881 116.616C37.9958 119.373 36.1114 121.632 33.4704 122.513C30.8297 123.394 27.966 122.719 25.9973 120.75L13.2498 108.002C11.2811 106.034 10.6054 103.171 11.4866 100.53C12.3675 97.8886 14.6272 96.0042 17.3834 95.6119L22.4002 94.8976L25.0601 92.2378C22.5274 88.0477 20.6632 83.5519 19.4928 78.8103H15.7369L11.6844 81.8525C9.45799 83.5241 6.52753 83.7893 4.03754 82.545C1.54702 81.3006 0 78.798 0 76.0139V57.9859C0 55.202 1.54702 52.6994 4.03754 51.455C6.52857 50.2107 9.45825 50.4761 11.6844 52.1475L15.7369 55.1899H19.4931C20.6637 50.4484 22.5277 45.9526 25.0604 41.7625L22.4005 39.1026L17.3836 38.3884C14.6272 37.9961 12.3678 36.1117 11.4868 33.4707C10.6059 30.8297 11.2814 27.9662 13.25 25.9976L25.9976 13.25C27.966 11.2816 30.8294 10.6056 33.4704 11.4868C36.1114 12.3678 37.9958 14.6275 38.3881 17.3836L39.1024 22.4005L41.7622 25.0604C45.9523 22.5277 50.4481 20.6635 55.1897 19.4931V15.7369L52.1475 11.6844C50.4759 9.45799 50.2107 6.52779 51.455 4.03754C52.6992 1.54728 55.202 0 57.9861 0H76.0141C78.798 0 81.3006 1.54702 82.545 4.03754C83.7895 6.52805 83.5241 9.45799 81.8525 11.6844L78.8101 15.7369V19.4931C83.5516 20.6637 88.0474 22.5277 92.2375 25.0604L94.8974 22.4005L95.6116 17.3836C96.0039 14.6272 97.8883 12.3678 100.529 11.4868C103.17 10.6059 106.034 11.2814 108.002 13.25L120.75 25.9976C122.719 27.966 123.394 30.8294 122.513 33.4704C121.632 36.1114 119.373 37.9958 116.616 38.3881L111.599 39.1024L108.94 41.7622C111.472 45.9523 113.337 50.4481 114.507 55.1897H118.263L122.316 52.1472C124.542 50.4756 127.472 50.2105 129.962 51.4547C132.453 52.6992 134 55.2017 134 57.9856V76.0136C134 78.7975 132.453 81.3001 129.962 82.5445C127.472 83.789 124.542 83.5236 122.316 81.852L118.263 78.8095H114.507C113.336 83.5511 111.472 88.0469 108.94 92.237L111.599 94.8969L116.616 95.6111C119.373 96.0034 121.632 97.8878 122.513 100.529C123.394 103.17 122.719 106.033 120.75 108.002L108.002 120.749C106.034 122.718 103.17 123.394 100.53 122.513C97.8886 121.632 96.0042 119.372 95.6119 116.616L94.8976 111.599L92.2378 108.939C88.0474 111.472 83.5516 113.336 78.8103 114.506V118.263L81.8528 122.315C83.5244 124.541 83.7895 127.472 82.5453 129.962C81.3011 132.452 78.798 134 76.0139 134Z" fill="white"/>
<path d="M129.962 51.455C127.472 50.2107 124.542 50.4756 122.316 52.1475L118.263 55.1899H114.507C113.336 50.4484 111.472 45.9526 108.94 41.7625L111.599 39.1026L116.616 38.3884C119.373 37.9961 121.632 36.1117 122.513 33.4707C123.394 30.8297 122.719 27.9662 120.75 25.9978L108.002 13.2503C106.034 11.2816 103.171 10.6062 100.529 11.4871C97.8883 12.368 96.0039 14.6277 95.6116 17.3839L94.8974 22.4008L92.2375 25.0604C88.0474 22.5277 83.5516 20.6635 78.8101 19.4931V15.7369L81.8525 11.6844C83.5241 9.45799 83.7893 6.52779 82.545 4.03754C81.3008 1.54728 78.798 0 76.0139 0H67V134H76.0139C78.7978 134 81.3003 132.453 82.5448 129.962C83.7893 127.472 83.5239 124.542 81.8523 122.316L78.8098 118.263V114.507C83.5511 113.337 88.0469 111.472 92.2373 108.94L94.8971 111.599L95.6114 116.616C96.0037 119.373 97.888 121.632 100.529 122.513C103.17 123.394 106.034 122.718 108.002 120.75L120.749 108.002C122.718 106.034 123.394 103.17 122.513 100.529C121.632 97.8883 119.372 96.0039 116.616 95.6116L111.599 94.8974L108.939 92.2375C111.472 88.0474 113.336 83.5516 114.506 78.8101H118.263L122.315 81.8525C124.541 83.5241 127.471 83.7893 129.962 82.545C132.452 81.3006 133.999 78.798 133.999 76.0141V57.9861C134 55.202 132.453 52.6994 129.962 51.455V51.455Z" fill="#C5C5C5"/>
<path d="M48.6312 69.6013C39.9453 69.6013 32.8789 62.5349 32.8789 53.849C32.8789 45.1631 39.9453 38.0967 48.6312 38.0967C57.3171 38.0967 64.3836 45.1631 64.3836 53.849C64.3836 62.5349 57.3171 69.6013 48.6312 69.6013Z" fill="#C5C5C5"/>
<path d="M82.7671 94.5791C76.255 94.5791 70.957 89.2811 70.957 82.769C70.957 76.257 76.255 70.959 82.7671 70.959C89.2792 70.959 94.5771 76.257 94.5771 82.769C94.5771 89.2811 89.2792 94.5791 82.7671 94.5791Z" fill="#515151"/>
<path d="M52.0814 92.3867C54.1349 92.3867 56.1022 90.5811 56.0072 88.4609C55.9119 86.3339 54.2822 84.5352 52.0814 84.5352C50.028 84.5352 48.0606 86.3408 48.1557 88.4609C48.2509 90.5879 49.8806 92.3867 52.0814 92.3867Z" fill="#C5C5C5"/>
<path d="M91.8627 65.9531C93.9161 65.9531 95.8835 64.1475 95.7885 62.0273C95.6932 59.9004 94.0635 58.1016 91.8627 58.1016C89.8092 58.1016 87.8419 59.9072 87.9369 62.0273C88.0322 64.1543 89.6619 65.9531 91.8627 65.9531Z" fill="#515151"/>
<path d="M79.3002 47.3711C81.3536 47.3711 83.321 45.5655 83.226 43.4453C83.1307 41.3183 81.501 39.5195 79.3002 39.5195C77.2467 39.5195 75.2794 41.3251 75.3744 43.4453C75.4697 45.5723 77.0994 47.3711 79.3002 47.3711Z" fill="#515151"/>
</svg>
