<svg width="257" height="95" viewBox="0 0 257 95" fill="none" xmlns="http://www.w3.org/2000/svg">
<path d="M162 9.13462C162 4.08971 166.09 0 171.135 0H247.865C252.91 0 257 4.08971 257 9.13462V64.399C257 64.399 249.698 61.6403 247.409 64.399C244.992 67.3106 249.236 74.9038 249.236 74.9038C249.236 74.9038 240.194 71.3038 237.817 74.9038C235.842 77.8956 239.188 85.4087 239.188 85.4087C239.188 85.4087 232.664 82.7382 230.51 85.4087C228.494 87.9076 230.51 95 230.51 95H171.135C166.09 95 162 90.9103 162 85.8654V9.13462Z" fill="url(#paint0_linear)"/>
<path d="M184.837 11.875H173.875V22.8365" stroke="white" stroke-width="4" stroke-linecap="round" stroke-linejoin="round"/>
<path d="M173.875 73.0765L173.875 84.0381L184.837 84.0381" stroke="white" stroke-width="4" stroke-linecap="round" stroke-linejoin="round"/>
<path d="M246.038 22.8365L246.038 11.875L234.163 11.875" stroke="white" stroke-width="4" stroke-linecap="round" stroke-linejoin="round"/>
<path d="M214.037 65.4523L214.063 65.5263L214.33 65.4328L214.153 65.212L210.114 60.1977C213.062 56.9102 214.804 52.478 214.804 47.5C214.804 36.9969 206.983 28.8 196.302 28.8C185.672 28.8 177.8 36.8939 177.8 47.5C177.8 58.208 185.622 66.2 196.251 66.2C200.318 66.2 203.993 65.0056 206.982 62.9567L207.944 64.1291L207.963 64.1596C207.98 64.1863 208.005 64.2246 208.036 64.2718C208.098 64.3659 208.187 64.4958 208.292 64.6391C208.5 64.9213 208.785 65.2713 209.071 65.495C209.482 65.8166 210.008 65.9691 210.549 66.0256C211.09 66.0823 211.662 66.0442 212.179 65.9703C212.697 65.8964 213.167 65.7856 213.507 65.6936C213.677 65.6475 213.815 65.606 213.911 65.5758C213.959 65.5608 213.997 65.5485 214.022 65.54L214.052 65.5301L214.06 65.5274L214.062 65.5266L214.062 65.5264L214.063 65.5263C214.063 65.5263 214.063 65.5263 214.037 65.4523ZM196.702 50.276L204.203 59.5399C202.042 61.0671 199.317 61.9267 196.302 61.9267C188.33 61.9267 182.447 55.8568 182.447 47.5C182.447 39.2442 188.331 33.0733 196.302 33.0733C204.273 33.0733 210.157 39.2442 210.157 47.5C210.157 51.0798 209.068 54.2234 207.219 56.6569L203.552 52.1126L203.549 52.1076C203.546 52.1035 203.543 52.0986 203.54 52.093C203.534 52.0842 203.528 52.0736 203.52 52.0614C203.494 52.0218 203.456 51.9652 203.407 51.8952C203.307 51.7553 203.16 51.5615 202.968 51.3433C202.583 50.9081 202.012 50.3707 201.269 49.9738C200.905 49.779 200.439 49.6883 199.961 49.6545C199.48 49.6206 198.969 49.6434 198.505 49.6879C198.041 49.7324 197.618 49.7991 197.312 49.8547C197.159 49.8824 197.035 49.9075 196.948 49.9256C196.905 49.9347 196.872 49.9421 196.849 49.9472L196.822 49.9532L196.815 49.9548L196.813 49.9552L196.813 49.9553L196.813 49.9554L196.858 50.1501L196.812 49.9554L196.502 50.028L196.702 50.276ZM216.381 65.3375V65.5375H216.581H220.676H220.876V65.3375V51.1146H228.292L236.072 65.4329L236.129 65.5375H236.248H241H241.341L241.175 65.2399L233.004 50.6253C236.976 49.3469 240.29 45.4479 240.29 40.2121C240.29 37.0305 239.198 34.3374 237.174 32.4407C235.152 30.545 232.217 29.4625 228.563 29.4625H216.581H216.381V29.6625V65.3375ZM220.876 47.0452V33.532H228.31C230.77 33.532 232.599 34.295 233.813 35.4997C235.027 36.7052 235.643 38.3713 235.643 40.2121C235.643 42.5093 234.877 44.21 233.624 45.3383C232.368 46.4695 230.6 47.0452 228.563 47.0452H220.876Z" fill="white" stroke="url(#paint1_linear)" stroke-width="0.4"/>
<path d="M79.5656 23.9219C79.5656 25.4797 78.9427 27.2161 77.6969 29.1309C76.4511 31.0132 74.8447 32.928 72.8777 34.8753C70.9435 36.7901 68.7798 38.6725 66.3866 40.5224C63.9934 42.3398 61.633 43.9788 59.3054 45.4392C57.3711 46.64 55.5025 47.7435 53.6994 48.7496C51.9291 49.7232 50.2571 50.6482 48.6835 51.5244C47.1427 52.4007 45.733 53.2445 44.4544 54.0559C43.1759 54.8348 42.0612 55.6299 41.1105 56.4413C43.4709 56.8632 45.5691 57.2851 47.4049 57.707C49.2408 58.0965 50.6997 58.567 51.7815 59.1188C52.5683 59.6705 53.3715 60.4981 54.1911 61.6015C55.0107 62.6725 55.7483 63.776 56.404 64.9119C57.0597 66.0478 57.5842 67.0863 57.9776 68.0275C58.4038 68.9362 58.6169 69.488 58.6169 69.6827C58.6169 71.1107 58.2399 72.6198 57.4859 74.2101C56.7646 75.8003 55.7483 77.3906 54.437 78.9809C53.1585 80.5387 51.6176 82.0478 49.8145 83.5083C48.0442 84.9687 46.0936 86.2831 43.9627 87.4515C41.8645 88.6523 39.6353 89.6584 37.2748 90.4698C34.9144 91.3136 32.5212 91.8653 30.0953 92.1249C29.0134 91.2487 27.9643 90.3075 26.948 89.3014C25.9318 88.3278 25.0138 87.419 24.1942 86.5752C23.3746 85.699 22.6862 84.9525 22.1289 84.3359C21.5715 83.6868 21.2273 83.2811 21.0962 83.1188C19.916 84.9363 18.7194 86.5914 17.5064 88.0844C16.2934 89.5773 15.0804 90.8268 13.8674 91.8328C12.6872 92.8714 11.4906 93.6503 10.2776 94.1696C9.09742 94.7213 7.91722 94.9647 6.73701 94.8998C6.24526 94.8673 5.73711 94.6726 5.21258 94.3156C4.68804 93.9911 4.1799 93.5692 3.68814 93.0499C3.19639 92.5306 2.73742 91.9627 2.31124 91.346C1.85227 90.7294 1.45887 90.129 1.13103 89.5448C0.770412 88.9931 0.491753 88.4738 0.295052 87.987C0.0983505 87.5326 0 87.2081 0 87.0134C0 83.6056 0.737629 79.8085 2.21289 75.6218C3.65536 71.4352 5.63876 67.1026 8.16309 62.6238C10.6874 58.1451 13.6707 53.6664 17.113 49.1877C20.5553 44.6765 24.2598 40.4088 28.2266 36.3844C29.5379 31.711 30.6034 27.1674 31.423 22.7536C32.2426 18.3398 32.6852 14.2992 32.7507 10.6318C34.9144 11.7677 36.652 12.8874 37.9633 13.9909C39.2746 15.0619 40.3073 16.0193 41.0613 16.8631C41.9137 17.8692 42.5366 18.8266 42.93 19.7353C43.1267 20.3195 43.2251 21.1471 43.2251 22.2181C43.2251 22.4128 43.2087 22.6238 43.1759 22.8509C43.1759 23.0457 43.1595 23.2566 43.1267 23.4838C47.7164 20.2383 52.2733 17.6582 56.7974 15.7434C61.3543 13.7961 65.7145 12.8225 69.878 12.8225C70.4026 12.8225 71.0091 13.0172 71.6975 13.4067C72.386 13.7961 73.0744 14.3154 73.7629 14.9645C74.4841 15.6136 75.189 16.3438 75.8774 17.1552C76.5987 17.9341 77.2215 18.7454 77.7461 19.5893C78.3034 20.4006 78.746 21.1958 79.0738 21.9747C79.4016 22.7211 79.5656 23.3702 79.5656 23.9219ZM32.9966 58.9727C31.2591 63.3865 29.3904 67.6705 27.3906 71.8247C25.4236 75.9464 23.3582 79.6787 21.1945 83.0215C24.9319 82.6969 28.4069 82.1614 31.6197 81.415C34.8325 80.6361 37.7338 79.6137 40.3237 78.348C42.9136 77.0823 45.1757 75.5245 47.1099 73.6746C49.0769 71.8247 50.6833 69.6502 51.9291 67.1512C51.2734 66.7942 50.5522 66.4697 49.7654 66.1776C49.0113 65.8855 48.2081 65.6259 47.3558 65.3987C46.5034 65.1715 45.6346 64.9768 44.7495 64.8145C43.8971 64.6198 43.0611 64.4413 42.2415 64.279C40.3401 63.9545 38.3731 63.6948 36.3405 63.5001C35.8815 63.4352 35.3406 62.9484 34.7177 62.0397C34.1276 61.1309 33.5539 60.1086 32.9966 58.9727ZM40.6679 35.8489C40.1106 37.8611 39.4877 39.9706 38.7993 42.1775C38.1436 44.352 37.4224 46.6076 36.6356 48.9443C39.5861 46.5751 42.7497 44.3358 46.1264 42.2262C49.5359 40.1167 52.9126 37.9747 56.2565 35.8003C59.6004 33.5934 62.764 31.2566 65.7473 28.7901C68.7306 26.2911 71.2877 23.4676 73.4187 20.3195C73.5498 20.1572 73.599 19.9625 73.5662 19.7353C73.5662 19.5081 73.5006 19.2972 73.3695 19.1024C73.2383 18.8753 73.058 18.6968 72.8286 18.5669C72.6319 18.4047 72.386 18.3235 72.0909 18.3235C70.2551 18.3235 68.1405 18.7617 65.7473 19.6379C63.3869 20.4818 60.8462 21.6826 58.1252 23.2404C55.4041 24.7657 52.552 26.6156 49.5687 28.7901C46.6181 30.9321 43.6512 33.285 40.6679 35.8489ZM6.93371 85.6503C7.22876 85.6503 7.65495 85.2933 8.21227 84.5793C8.80237 83.8328 9.47443 82.8105 10.2285 81.5123C11.0153 80.1817 11.8676 78.5914 12.7856 76.7415C13.7363 74.8592 14.7198 72.7983 15.7361 70.559C16.7524 68.2871 17.7851 65.8531 18.8341 63.2567C19.916 60.6604 20.9814 57.9666 22.0305 55.1756C20.0963 57.6096 18.2768 60.0762 16.5721 62.5752C14.8673 65.0417 13.3265 67.5082 11.9496 69.9748C10.6055 72.4413 9.44165 74.8916 8.45814 77.3257C7.50742 79.7273 6.80258 82.0641 6.34361 84.3359C6.24526 84.7902 6.26165 85.131 6.39278 85.3582C6.5567 85.5529 6.73701 85.6503 6.93371 85.6503Z" fill="white"/>
<path d="M69.3863 89.3014C68.8945 89.3014 68.2716 89.1229 67.5176 88.7659C66.7636 88.4414 66.0424 88.0194 65.3539 87.5002C64.6655 87.0134 64.0754 86.4616 63.5836 85.845C63.0919 85.2284 62.846 84.628 62.846 84.0438C63.1738 82.6158 63.6164 80.9768 64.1737 79.1269C64.731 77.277 65.3375 75.3947 65.9932 73.4799C66.6161 71.565 67.2881 69.6989 68.0094 67.8815C68.6978 66.0316 69.3207 64.3926 69.878 62.9646C70.4681 61.5366 70.9763 60.3845 71.4025 59.5082C71.8287 58.632 72.1073 58.1938 72.2384 58.1938C72.4352 58.1938 72.9269 58.4048 73.7137 58.8267C74.5005 59.2486 75.3201 59.7679 76.1725 60.3845C77.0576 60.9687 77.8444 61.6015 78.5329 62.2831C79.2213 62.9322 79.5656 63.5001 79.5656 63.9869C79.5656 64.0843 79.5492 64.2141 79.5164 64.3764C79.4836 64.5062 79.4344 64.6847 79.3689 64.9119C79.1066 65.7232 78.7624 66.6807 78.3362 67.7841C77.9428 68.8876 77.5166 70.0397 77.0576 71.2405C76.5987 72.4089 76.1397 73.5934 75.6807 74.7943C75.2217 75.9626 74.812 77.0661 74.4513 78.1046C74.0907 79.1432 73.7957 80.0519 73.5662 80.8308C73.3367 81.6097 73.222 82.1776 73.222 82.5346C73.222 82.7294 73.3203 82.8267 73.517 82.8267C73.8776 82.8267 74.4186 82.6158 75.1398 82.1939C75.861 81.772 76.6806 81.2202 77.5986 80.5387C78.5493 79.8572 79.5328 79.1107 80.5491 78.2993C81.5654 77.488 82.5325 76.6928 83.4504 75.9139C84.4011 75.1026 85.2535 74.3724 86.0075 73.7233C86.7615 73.0742 87.3353 72.5874 87.7287 72.2628C88.0237 72.5549 88.3679 72.9281 88.7613 73.3825C89.1875 73.8369 89.5809 74.2588 89.9415 74.6482C89.2203 75.3622 88.3188 76.2385 87.2369 77.277C86.1551 78.2831 84.9748 79.3217 83.6963 80.3927C82.4505 81.4636 81.1392 82.5346 79.7623 83.6056C78.4181 84.6766 77.1068 85.634 75.8282 86.4779C74.5497 87.3217 73.3531 88.0032 72.2384 88.5225C71.1238 89.0418 70.1731 89.3014 69.3863 89.3014ZM88.8597 43.3459C88.8269 43.4757 88.6958 43.8003 88.4663 44.3195C88.2696 44.8064 88.0237 45.3905 87.7287 46.0721C87.4336 46.7212 87.0894 47.4189 86.696 48.1654C86.3354 48.8794 85.9747 49.5447 85.6141 50.1613C85.2535 50.778 84.9093 51.2972 84.5814 51.7192C84.2536 52.1086 83.9913 52.3033 83.7946 52.3033C83.2045 52.2709 82.4833 52.0924 81.6309 51.7678C80.8113 51.4433 80.0081 51.0863 79.2213 50.6968C78.4673 50.2749 77.8116 49.8693 77.2543 49.4798C76.7298 49.0903 76.4675 48.8145 76.4675 48.6522C76.4675 47.9707 76.6642 47.0944 77.0576 46.0234C77.451 44.9199 77.91 43.8652 78.4345 42.8591C78.9591 41.8206 79.4836 40.9281 80.0081 40.1816C80.5655 39.4352 80.9916 39.0619 81.2867 39.0619C81.8768 39.0619 82.598 39.2567 83.4504 39.6461C84.3028 40.0031 85.1224 40.425 85.9092 40.9118C86.7288 41.3986 87.4172 41.8855 87.9745 42.3723C88.5646 42.8266 88.8597 43.1512 88.8597 43.3459Z" fill="white"/>
<path d="M92.0561 89.3014C91.4988 89.3014 90.7611 89.0418 89.8432 88.5225C88.958 88.0357 88.0893 87.419 87.2369 86.6726C86.3845 85.9586 85.6469 85.2121 85.024 84.4332C84.4011 83.6543 84.0897 82.989 84.0897 82.4373C84.0897 81.4636 84.3683 79.9221 84.9257 77.8125C85.4502 75.703 86.1551 73.3014 87.0402 70.6076C87.9254 67.8815 88.9253 64.9768 90.0399 61.8936C91.1873 58.8105 92.3347 55.7922 93.4822 52.8388H86.4993C86.4665 52.8388 86.4501 52.8064 86.4501 52.7415C86.4501 52.5467 86.5321 52.2709 86.696 51.9139C86.8271 51.5244 87.0074 51.135 87.2369 50.7455C87.4336 50.3236 87.6795 49.9504 87.9745 49.6258C88.2368 49.2688 88.4991 49.0417 88.7613 48.9443L95.1541 48.6522C96.0721 46.4453 96.9408 44.4169 97.7604 42.567C98.6128 40.6846 99.3668 39.0782 100.022 37.7475C100.186 37.3905 100.35 37.0173 100.514 36.6278C100.711 36.2059 100.973 35.8003 101.301 35.4108C101.662 34.9889 102.121 34.567 102.678 34.1451C103.268 33.6907 104.055 33.2364 105.038 32.782C105.76 32.425 106.628 32.0355 107.645 31.6136C108.694 31.1917 109.71 30.8023 110.694 30.4453C111.71 30.0883 112.628 29.7962 113.447 29.569C114.267 29.3094 114.857 29.1795 115.218 29.1795C115.545 29.1795 115.709 29.2445 115.709 29.3743V29.4716C115.709 29.5041 115.677 29.5852 115.611 29.715C115.414 30.0396 115.054 30.7536 114.529 31.857C114.005 32.928 113.349 34.2911 112.562 35.9463C111.808 37.569 110.956 39.4352 110.005 41.5447C109.087 43.6218 108.136 45.8287 107.153 48.1654L118.955 47.7273C119.283 47.7273 119.381 47.922 119.25 48.3114C119.119 48.7009 118.873 49.1553 118.512 49.6745C118.152 50.1938 117.726 50.7293 117.234 51.281C116.775 51.8327 116.381 52.2547 116.054 52.5467C115.988 52.6117 115.857 52.6766 115.66 52.7415C115.464 52.8064 115.218 52.8388 114.923 52.8388H105.186C104.006 55.6624 102.875 58.5184 101.793 61.4068C100.711 64.2952 99.7438 67.0377 98.8914 69.634C98.0391 72.2304 97.3506 74.6158 96.8261 76.7902C96.3343 78.9647 96.0885 80.7496 96.0885 82.1452C96.0885 82.3399 96.1868 82.4373 96.3835 82.4373C96.7441 82.4373 97.285 82.2426 98.0063 81.8531C98.7275 81.4312 99.5307 80.8957 100.416 80.2466C101.334 79.5975 102.301 78.8835 103.317 78.1046C104.334 77.3257 105.301 76.563 106.219 75.8166C107.136 75.0377 107.956 74.3399 108.677 73.7233C109.431 73.0742 110.005 72.5874 110.398 72.2628C110.694 72.5549 111.038 72.9281 111.431 73.3825C111.857 73.8369 112.251 74.2588 112.611 74.6482C111.89 75.3622 110.989 76.2385 109.907 77.277C108.825 78.2831 107.645 79.3217 106.366 80.3927C105.12 81.4636 103.809 82.5346 102.432 83.6056C101.088 84.6766 99.7602 85.634 98.4489 86.4779C97.1703 87.3217 95.9737 88.0032 94.8591 88.5225C93.7444 89.0418 92.8101 89.3014 92.0561 89.3014Z" fill="white"/>
<path d="M144.477 74.6482C141.461 77.5691 138.609 80.0194 135.92 81.9991C133.265 83.9789 130.724 85.5691 128.298 86.77C125.872 87.9708 123.545 88.8308 121.315 89.3501C119.119 89.8693 116.972 90.129 114.873 90.129C113.988 90.129 113.005 89.8044 111.923 89.1553C110.841 88.5063 109.841 87.7111 108.923 86.77C107.972 85.8612 107.186 84.9038 106.563 83.8977C105.94 82.8916 105.628 82.0316 105.628 81.3176C105.628 78.6563 106.005 76.2223 106.759 74.0154C107.481 71.776 108.448 69.7638 109.661 67.9788C110.874 66.1938 112.251 64.6198 113.792 63.2567C115.365 61.8936 116.988 60.7577 118.66 59.849C120.365 58.9403 122.053 58.2587 123.725 57.8044C125.397 57.35 126.938 57.1228 128.347 57.1228C129.364 57.1228 130.364 57.4149 131.347 57.9991C132.363 58.5833 133.281 59.2973 134.101 60.1411C134.921 60.9849 135.576 61.8774 136.068 62.8186C136.592 63.7273 136.855 64.5224 136.855 65.204C136.855 66.3074 136.379 67.4433 135.429 68.6117C134.511 69.7476 133.199 70.916 131.495 72.1168C129.79 73.3176 127.741 74.5509 125.348 75.8166C122.955 77.0498 120.315 78.2993 117.431 79.5651C117.332 80.344 117.283 81.1067 117.283 81.8531C117.283 82.8592 117.496 83.5407 117.922 83.8977C118.381 84.2547 119.217 84.4332 120.43 84.4332C122.594 84.4332 124.626 84.0762 126.528 83.3622C128.462 82.6482 130.314 81.7233 132.085 80.5874C133.855 79.4515 135.56 78.1533 137.199 76.6928C138.838 75.2324 140.461 73.7557 142.067 72.2628L144.477 74.6482ZM127.167 62.4778C126.512 62.4778 125.79 62.8348 125.004 63.5488C124.217 64.2303 123.43 65.1391 122.643 66.275C121.856 67.4109 121.102 68.7253 120.381 70.2182C119.66 71.6786 119.037 73.204 118.512 74.7943C119.725 74.0154 120.906 73.1878 122.053 72.3115C123.233 71.4352 124.282 70.5265 125.2 69.5853C126.118 68.6117 126.856 67.6218 127.413 66.6157C127.97 65.6097 128.249 64.6036 128.249 63.5975C128.249 63.3054 128.151 63.0458 127.954 62.8186C127.79 62.5914 127.528 62.4778 127.167 62.4778Z" fill="white"/>
<defs>
<linearGradient id="paint0_linear" x1="168.5" y1="-42" x2="238.5" y2="136.5" gradientUnits="userSpaceOnUse">
<stop stop-color="#FFB900"/>
<stop offset="1" stop-color="#FA4A0C"/>
</linearGradient>
<linearGradient id="paint1_linear" x1="209.5" y1="29" x2="209.5" y2="66" gradientUnits="userSpaceOnUse">
<stop stop-color="#FFB900"/>
<stop offset="1" stop-color="#FA4A0C"/>
</linearGradient>
</defs>
</svg>
